<svg width="480" height="220" viewBox="0 0 480 220" fill="none" xmlns="http://www.w3.org/2000/svg">
<path d="M96.1177 74.4209C96.1177 69.2683 100.295 65.0912 105.447 65.0912C110.6 65.0912 114.777 69.2683 114.777 74.4209V169.02C114.777 185.076 109.353 197.515 98.5043 206.339C87.6558 215.307 74.6376 219.791 59.4497 219.791C47.2994 219.791 36.8126 217.476 27.9891 212.848C21.9785 209.793 16.9748 205.799 12.9778 200.865C9.80772 196.952 11.5106 191.35 15.8939 188.87C20.5694 186.225 26.4067 188.244 30.1721 192.075C36.8164 198.836 46.7202 202.216 59.8837 202.216C71.1661 202.216 79.9896 199.251 86.354 193.32C92.8631 187.39 96.1177 179.29 96.1177 169.02V153.615C86.571 168.08 72.9742 175.312 55.3273 175.312C39.8501 175.312 26.7596 169.815 16.0558 158.822C5.35192 147.829 0 134.449 0 118.683C0 102.916 5.35192 89.6088 16.0558 78.7603C26.7596 67.7672 39.8501 62.2706 55.3273 62.2706C73.1188 62.2706 86.7156 69.4306 96.1177 83.7506V74.4209ZM29.9418 146.238C37.3188 153.615 46.5039 157.303 57.497 157.303C68.4902 157.303 77.6752 153.615 85.0522 146.238C92.4292 138.861 96.1177 129.676 96.1177 118.683C96.1177 107.834 92.4292 98.7215 85.0522 91.3446C77.6752 83.9676 68.4902 80.2791 57.497 80.2791C46.5039 80.2791 37.3188 83.9676 29.9418 91.3446C22.5649 98.7215 18.8764 107.834 18.8764 118.683C18.8764 129.676 22.5649 138.861 29.9418 146.238Z" fill="#D42230"/>
<path d="M145.329 45.347C141.713 45.347 138.675 44.1175 136.216 41.6585C133.757 39.1995 132.528 36.2342 132.528 32.7627C132.528 29.2912 133.757 26.3259 136.216 23.8669C138.675 21.2633 141.713 19.9615 145.329 19.9615C148.801 19.9615 151.766 21.2633 154.225 23.8669C156.684 26.3259 157.913 29.2912 157.913 32.7627C157.913 36.2342 156.684 39.1995 154.225 41.6585C151.766 44.1175 148.801 45.347 145.329 45.347ZM145.221 173.576C140.008 173.576 135.782 169.351 135.782 164.138V74.5294C135.782 69.3168 140.008 65.0912 145.221 65.0912C150.433 65.0912 154.659 69.3168 154.659 74.5294V164.138C154.659 169.351 150.433 173.576 145.221 173.576Z" fill="#D42230"/>
<path d="M185.301 173.576C180.088 173.576 175.863 169.351 175.863 164.138V24.6263C175.863 19.4138 180.088 15.1881 185.301 15.1881C190.513 15.1881 194.739 19.4138 194.739 24.6263V164.138C194.739 169.351 190.513 173.576 185.301 173.576Z" fill="#D42230"/>
<path d="M307.504 159.907C296.366 170.9 282.842 176.397 266.931 176.397C251.019 176.397 237.495 170.9 226.357 159.907C215.364 148.914 209.867 135.389 209.867 119.334C209.867 103.278 215.364 89.7534 226.357 78.7603C237.495 67.7672 251.019 62.2706 266.931 62.2706C282.842 62.2706 296.366 67.7672 307.504 78.7603C318.642 89.7534 324.211 103.278 324.211 119.334C324.211 135.389 318.642 148.914 307.504 159.907ZM266.931 157.954C277.779 157.954 286.892 154.266 294.269 146.889C301.646 139.512 305.334 130.327 305.334 119.334C305.334 108.341 301.646 99.1555 294.269 91.7785C286.892 84.4015 277.779 80.713 266.931 80.713C256.227 80.713 247.186 84.4015 239.809 91.7785C232.432 99.1555 228.744 108.341 228.744 119.334C228.744 130.327 232.432 139.512 239.809 146.889C247.186 154.266 256.227 157.954 266.931 157.954Z" fill="#D42230"/>
<path d="M352.812 94.3821C352.812 98.5769 354.909 101.976 359.104 104.58C363.298 107.039 368.361 109.064 374.292 110.655C380.222 112.101 386.153 113.837 392.083 115.862C398.014 117.743 403.076 121.069 407.271 125.843C411.466 130.471 413.563 136.474 413.563 143.851C413.563 153.687 409.73 161.57 402.064 167.501C394.542 173.431 384.851 176.397 372.99 176.397C362.431 176.397 353.39 174.082 345.869 169.454C340.757 166.308 336.647 162.46 333.539 157.912C331.006 154.203 332.732 149.338 336.628 147.104C341.518 144.3 347.751 146.915 351.786 150.851C352.989 152.025 354.344 153.091 355.849 154.049C360.623 157.086 366.336 158.605 372.99 158.605C379.21 158.605 384.345 157.448 388.395 155.134C392.445 152.675 394.47 148.914 394.47 143.851C394.47 139.657 392.372 136.33 388.178 133.871C383.983 131.267 378.92 129.242 372.99 127.795C367.059 126.204 361.129 124.396 355.198 122.371C349.268 120.346 344.205 117.019 340.01 112.391C335.816 107.762 333.718 101.831 333.718 94.5991C333.718 85.1971 337.334 77.4585 344.567 71.3833C351.944 65.3082 361.129 62.2706 372.122 62.2706C380.945 62.2706 388.756 64.2957 395.555 68.3458C400.001 70.847 403.736 74.001 406.759 77.8075C409.661 81.4625 407.994 86.6228 403.925 88.9082C399.347 91.4795 393.681 89.2152 389.796 85.6828C385.516 81.791 379.625 79.8452 372.122 79.8452C366.77 79.8452 362.214 81.147 358.453 83.7506C354.692 86.2096 352.812 89.7534 352.812 94.3821Z" fill="#D42230"/>
<path d="M239.22 120.753C240.882 128.565 245.855 134.649 253.736 138.038" stroke="#D42230" stroke-width="6.07516" stroke-linecap="round" stroke-linejoin="round"/>
<path fill-rule="evenodd" clip-rule="evenodd" d="M252.344 18.8262C250.758 17.9793 248.787 18.578 247.94 20.1634C244.645 26.3317 244.359 32.0051 245.973 37.115C247.538 42.0684 250.803 46.2221 254.093 49.6715C255.753 51.4117 257.482 53.0345 259.076 54.5176C259.232 54.6627 259.386 54.8063 259.539 54.9483C260.974 56.2827 262.264 57.4814 263.374 58.6221C264.615 59.896 265.468 60.9352 265.969 61.802C266.463 62.6579 266.441 63.0447 266.422 63.1589C266.124 64.9314 267.319 66.6101 269.091 66.9084C270.864 67.2067 272.543 66.0116 272.841 64.2391C273.204 62.0804 272.519 60.128 271.605 58.5457C270.697 56.9743 269.396 55.4764 268.038 54.0815C266.807 52.8167 265.393 51.5027 263.983 50.1926C263.825 50.0457 263.667 49.8989 263.51 49.7522C261.917 48.2706 260.316 46.7644 258.803 45.1787C255.748 41.9761 253.297 38.6901 252.18 35.1545C251.113 31.7754 251.181 27.9107 253.681 23.2303C254.528 21.6449 253.929 19.6731 252.344 18.8262Z" fill="#D42230"/>
<path d="M287.45 17.6353C294.89 23.3985 298.681 38.9572 298.681 38.9572C298.681 38.9572 277.71 43.7953 268.114 37.8071C259.532 32.451 253.292 16.5612 253.292 16.5612C253.292 16.5612 276.899 9.46236 287.45 17.6353Z" fill="#7AC043"/>
<path d="M445.619 77.6284C445.619 79.2263 444.324 80.5216 442.726 80.5216H436.457V99.19C436.457 100.889 436.779 102.106 437.422 102.841C438.111 103.53 439.144 103.897 440.522 103.943C441.175 103.943 441.9 103.933 442.698 103.912C444.29 103.871 445.619 105.136 445.619 106.729C445.619 108.131 444.58 109.33 443.182 109.427C439.177 109.704 436.154 109.208 434.115 107.939C431.681 106.377 430.464 103.461 430.464 99.19V80.5216H426.538C424.94 80.5216 423.645 79.2263 423.645 77.6284C423.645 76.0305 424.94 74.7351 426.538 74.7351H430.464V69.114C430.464 67.7896 431.334 66.6222 432.603 66.2429C434.525 65.6685 436.457 67.1081 436.457 69.114V74.7351H442.726C444.324 74.7351 445.619 76.0305 445.619 77.6284Z" fill="#D42230"/>
<path d="M473.877 76.6513C474.322 75.4967 475.432 74.7351 476.67 74.7351C478.788 74.7351 480.236 76.8741 479.449 78.8405L468.18 107.013C467.657 108.321 466.39 109.179 464.982 109.179H462.619C461.211 109.179 459.945 108.321 459.421 107.013L448.152 78.8405C447.366 76.8741 448.814 74.7351 450.932 74.7351C452.169 74.7351 453.279 75.4967 453.725 76.6513L463.801 102.772L473.877 76.6513Z" fill="#D42230"/>
</svg>
