<svg width="96" height="44" viewBox="0 0 96 44" fill="none" xmlns="http://www.w3.org/2000/svg">
<path d="M22.6437 16.1125C22.6437 15.2738 23.3235 14.594 24.1622 14.594C25.0008 14.594 25.6806 15.2738 25.6806 16.1125V31.509C25.6806 34.1221 24.7978 36.1468 23.0322 37.5828C21.2665 39.0424 19.1477 39.7722 16.6758 39.7722C14.6983 39.7722 12.9915 39.3956 11.5554 38.6422C10.5771 38.1451 9.76275 37.495 9.11223 36.6919C8.59628 36.055 8.87343 35.1433 9.58684 34.7397C10.3478 34.3091 11.2979 34.6378 11.9107 35.2614C12.9921 36.3617 14.604 36.9119 16.7464 36.9119C18.5827 36.9119 20.0188 36.4293 21.0546 35.464C22.114 34.4988 22.6437 33.1805 22.6437 31.509V29.0017C21.0899 31.3559 18.877 32.533 16.0048 32.533C13.4858 32.533 11.3553 31.6385 9.61318 29.8493C7.87107 28.0601 7.00002 25.8824 7.00002 23.3163C7.00002 20.7503 7.87107 18.5844 9.61318 16.8187C11.3553 15.0295 13.4858 14.1349 16.0048 14.1349C18.9005 14.1349 21.1135 15.3003 22.6437 17.6309V16.1125ZM11.8732 27.8011C13.0739 29.0017 14.5688 29.6021 16.358 29.6021C18.1472 29.6021 19.6421 29.0017 20.8427 27.8011C22.0434 26.6005 22.6437 25.1055 22.6437 23.3163C22.6437 21.5507 22.0434 20.0675 20.8427 18.8669C19.6421 17.6662 18.1472 17.0659 16.358 17.0659C14.5688 17.0659 13.0739 17.6662 11.8732 18.8669C10.6726 20.0675 10.0723 21.5507 10.0723 23.3163C10.0723 25.1055 10.6726 26.6005 11.8732 27.8011Z" fill="#E7E6E9"/>
<path d="M30.6532 11.3805C30.0646 11.3805 29.5702 11.1804 29.17 10.7802C28.7698 10.38 28.5697 9.89737 28.5697 9.33236C28.5697 8.76735 28.7698 8.28474 29.17 7.88452C29.5702 7.46077 30.0646 7.24889 30.6532 7.24889C31.2182 7.24889 31.7008 7.46077 32.101 7.88452C32.5012 8.28474 32.7013 8.76735 32.7013 9.33236C32.7013 9.89737 32.5012 10.38 32.101 10.7802C31.7008 11.1804 31.2182 11.3805 30.6532 11.3805ZM30.6355 32.2505C29.7871 32.2505 29.0994 31.5628 29.0994 30.7144V16.1301C29.0994 15.2817 29.7871 14.594 30.6355 14.594C31.4839 14.594 32.1716 15.2818 32.1716 16.1301V30.7144C32.1716 31.5628 31.4839 32.2505 30.6355 32.2505Z" fill="#E7E6E9"/>
<path d="M37.1588 32.2505C36.3104 32.2505 35.6226 31.5628 35.6226 30.7144V8.00812C35.6226 7.15974 36.3104 6.472 37.1588 6.472C38.0071 6.472 38.6949 7.15974 38.6949 8.00812V30.7144C38.6949 31.5628 38.0071 32.2505 37.1588 32.2505Z" fill="#E7E6E9"/>
<path d="M57.048 30.0258C55.2353 31.815 53.0341 32.7096 50.4445 32.7096C47.8548 32.7096 45.6537 31.815 43.8409 30.0258C42.0517 28.2366 41.1571 26.0354 41.1571 23.4223C41.1571 20.8091 42.0517 18.6079 43.8409 16.8187C45.6537 15.0295 47.8548 14.1349 50.4445 14.1349C53.0341 14.1349 55.2353 15.0295 57.048 16.8187C58.8608 18.6079 59.7671 20.8091 59.7671 23.4223C59.7671 26.0354 58.8608 28.2366 57.048 30.0258ZM50.4445 29.708C52.2101 29.708 53.6933 29.1077 54.8939 27.907C56.0946 26.7064 56.6949 25.2115 56.6949 23.4223C56.6949 21.6331 56.0946 20.1382 54.8939 18.9375C53.6933 17.7369 52.2101 17.1365 50.4445 17.1365C48.7024 17.1365 47.231 17.7369 46.0303 18.9375C44.8297 20.1382 44.2294 21.6331 44.2294 23.4223C44.2294 25.2115 44.8297 26.7064 46.0303 27.907C47.231 29.1077 48.7024 29.708 50.4445 29.708Z" fill="#E7E6E9"/>
<path d="M64.4221 19.3613C64.4221 20.044 64.7635 20.5972 65.4462 21.021C66.1289 21.4212 66.9529 21.7508 67.9181 22.0098C68.8833 22.2452 69.8485 22.5277 70.8138 22.8573C71.779 23.1633 72.603 23.7048 73.2857 24.4817C73.9684 25.235 74.3098 26.212 74.3098 27.4127C74.3098 29.0135 73.6859 30.2966 72.4382 31.2618C71.214 32.227 69.6367 32.7096 67.7062 32.7096C65.9877 32.7096 64.5163 32.3329 63.2921 31.5796C62.4601 31.0676 61.7912 30.4414 61.2854 29.701C60.8731 29.0975 61.154 28.3056 61.7882 27.942C62.584 27.4857 63.5985 27.9113 64.2552 28.5519C64.451 28.7429 64.6715 28.9164 64.9165 29.0724C65.6934 29.5667 66.6233 29.8139 67.7062 29.8139C68.7185 29.8139 69.5543 29.6256 70.2135 29.2489C70.8726 28.8487 71.2022 28.2366 71.2022 27.4127C71.2022 26.7299 70.8609 26.1885 70.1781 25.7883C69.4954 25.3645 68.6715 25.0349 67.7062 24.7995C66.741 24.5405 65.7758 24.2462 64.8105 23.9167C63.8453 23.5871 63.0214 23.0456 62.3386 22.2923C61.6559 21.5389 61.3146 20.5737 61.3146 19.3966C61.3146 17.8664 61.9031 16.6069 63.0802 15.6181C64.2809 14.6293 65.7758 14.1349 67.565 14.1349C69.001 14.1349 70.2723 14.4645 71.3788 15.1237C72.1025 15.5308 72.7104 16.0441 73.2023 16.6637C73.6747 17.2585 73.4034 18.0984 72.7411 18.4704C71.996 18.8888 71.0738 18.5203 70.4416 17.9454C69.745 17.312 68.7861 16.9953 67.565 16.9953C66.6939 16.9953 65.9523 17.2072 65.3402 17.6309C64.7282 18.0311 64.4221 18.6079 64.4221 19.3613Z" fill="#E7E6E9"/>
<path d="M45.9344 23.6532C46.2049 24.9246 47.0143 25.9149 48.297 26.4664" stroke="#E7E6E9" stroke-width="0.988766" stroke-linecap="round" stroke-linejoin="round"/>
<path fill-rule="evenodd" clip-rule="evenodd" d="M48.0703 7.06413C47.8123 6.92629 47.4914 7.02373 47.3535 7.28176C46.8172 8.28568 46.7708 9.20907 47.0335 10.0407C47.2881 10.8469 47.8195 11.523 48.3551 12.0844C48.6252 12.3676 48.9066 12.6317 49.166 12.8731C49.1914 12.8967 49.2165 12.9201 49.2414 12.9432C49.475 13.1604 49.6848 13.3555 49.8656 13.5411C50.0675 13.7485 50.2063 13.9176 50.2878 14.0587C50.3683 14.198 50.3648 14.2609 50.3616 14.2795C50.3131 14.568 50.5076 14.8412 50.7961 14.8898C51.0846 14.9383 51.3578 14.7438 51.4063 14.4553C51.4655 14.104 51.3539 13.7862 51.2051 13.5287C51.0574 13.273 50.8457 13.0292 50.6247 12.8021C50.4242 12.5963 50.1941 12.3824 49.9647 12.1692C49.939 12.1453 49.9133 12.1214 49.8876 12.0975C49.6285 11.8564 49.3678 11.6112 49.1216 11.3531C48.6244 10.8319 48.2254 10.2971 48.0437 9.72164C47.8699 9.17169 47.881 8.54268 48.288 7.78092C48.4258 7.52289 48.3284 7.20197 48.0703 7.06413Z" fill="#E7E6E9"/>
<path d="M53.7842 6.87025C54.9951 7.80824 55.612 10.3405 55.612 10.3405C55.612 10.3405 52.1988 11.1279 50.6371 10.1533C49.2403 9.28158 48.2247 6.69542 48.2247 6.69542C48.2247 6.69542 52.0669 5.54005 53.7842 6.87025Z" fill="#E7E6E9"/>
<path d="M80.9918 14.848C80.9918 15.211 80.6975 15.5052 80.3346 15.5052H78.9106V19.7459C78.9106 20.1319 78.9836 20.4083 79.1297 20.5753C79.2861 20.7317 79.5209 20.8152 79.8338 20.8256C79.9822 20.8256 80.147 20.8233 80.3282 20.8186C80.6898 20.8092 80.9918 21.0966 80.9918 21.4584C80.9918 21.7768 80.7558 22.0493 80.4381 22.0713C79.5283 22.1343 78.8417 22.0216 78.3785 21.7332C77.8256 21.3785 77.5492 20.7161 77.5492 19.7459V15.5052H76.6572C76.2943 15.5052 76 15.211 76 14.848C76 14.485 76.2943 14.1908 76.6572 14.1908H77.5492V12.9139C77.5492 12.613 77.7467 12.3478 78.035 12.2617C78.4716 12.1312 78.9106 12.4582 78.9106 12.9139V14.1908H80.3346C80.6975 14.1908 80.9918 14.485 80.9918 14.848Z" fill="#E7E6E9"/>
<path d="M87.4107 14.626C87.5119 14.3637 87.764 14.1908 88.0452 14.1908C88.5262 14.1908 88.8552 14.6766 88.6765 15.1233L86.1166 21.5231C85.9978 21.8201 85.7101 22.0149 85.3902 22.0149H84.8535C84.5336 22.0149 84.2459 21.8201 84.127 21.5231L81.5672 15.1233C81.3885 14.6766 81.7174 14.1908 82.1985 14.1908C82.4797 14.1908 82.7318 14.3637 82.833 14.626L85.1218 20.5596L87.4107 14.626Z" fill="#E7E6E9"/>
</svg>
