<svg width="18" height="18" viewBox="0 0 18 18" fill="none" xmlns="http://www.w3.org/2000/svg">
<g clip-path="url(#clip0_113_975)">
<path d="M13.875 1.5C14.7128 1.49955 15.5209 1.81074 16.142 2.37304C16.7631 2.93533 17.1528 3.70854 17.2354 4.54227C17.318 5.37601 17.0875 6.21066 16.5889 6.88389C16.0902 7.55712 15.3589 8.02081 14.5373 8.18475L14.5455 8.205C14.9169 9.10212 15.065 10.076 14.9771 11.0429C14.8892 12.0099 14.568 12.941 14.041 13.7565C13.514 14.572 12.797 15.2474 11.9515 15.7247C11.106 16.202 10.1573 16.4671 9.18678 16.497L9.00003 16.5C8.01137 16.5003 7.03797 16.2562 6.16639 15.7895C5.2948 15.3229 4.55204 14.648 4.00414 13.8251C3.45625 13.0021 3.1202 12.0565 3.02589 11.0724C2.93157 10.0882 3.08191 9.09604 3.46353 8.184C2.64133 8.0209 1.90927 7.5576 1.40993 6.88435C0.910585 6.21109 0.679708 5.37608 0.762261 4.54193C0.844815 3.70778 1.23489 2.93423 1.85651 2.37191C2.47814 1.80959 3.28681 1.49878 4.12503 1.5C4.98816 1.50006 5.81847 1.8308 6.44524 2.42423C7.07201 3.01765 7.4476 3.82866 7.49478 4.6905L7.54953 4.67625C8.02407 4.55876 8.51116 4.49958 9.00003 4.5L9.18753 4.503C9.63212 4.51649 10.0738 4.57938 10.5045 4.6905C10.5517 3.82853 10.9274 3.01741 11.5543 2.42397C12.1813 1.83052 13.0118 1.49986 13.875 1.5ZM9.00003 6C8.40908 6 7.82392 6.1164 7.27795 6.34255C6.73199 6.56869 6.23591 6.90016 5.81805 7.31802C5.40019 7.73589 5.06872 8.23196 4.84257 8.77793C4.61643 9.32389 4.50003 9.90905 4.50003 10.5C4.50003 11.091 4.61643 11.6761 4.84257 12.2221C5.06872 12.768 5.40019 13.2641 5.81805 13.682C6.23591 14.0998 6.73199 14.4313 7.27795 14.6575C7.82392 14.8836 8.40908 15 9.00003 15C10.1935 15 11.3381 14.5259 12.182 13.682C13.0259 12.8381 13.5 11.6935 13.5 10.5C13.5 9.30653 13.0259 8.16194 12.182 7.31802C11.3381 6.47411 10.1935 6 9.00003 6ZM4.12503 3C3.62775 3 3.15084 3.19755 2.7992 3.54918C2.44757 3.90081 2.25003 4.37772 2.25003 4.875C2.25003 5.37228 2.44757 5.8492 2.7992 6.20083C3.15084 6.55246 3.62775 6.75 4.12503 6.75L4.24803 6.74625L4.32528 6.73875C4.71496 6.25439 5.17717 5.83317 5.69553 5.49L5.94303 5.3355C6.01314 5.05877 6.01914 4.76968 5.96056 4.49028C5.90199 4.21088 5.78039 3.94854 5.60503 3.72327C5.42968 3.498 5.2052 3.31575 4.94871 3.1904C4.69223 3.06506 4.41051 2.99994 4.12503 3ZM13.875 3C13.6023 2.99991 13.3329 3.0593 13.0855 3.17402C12.8382 3.28874 12.6188 3.45604 12.4427 3.66426C12.2666 3.87247 12.1381 4.11659 12.066 4.37958C11.994 4.64257 11.9802 4.91812 12.0255 5.187L12.0578 5.337L12.0788 5.349C12.6885 5.71432 13.2288 6.18456 13.6748 6.738C13.9288 6.76684 14.186 6.74343 14.4306 6.66922C14.6752 6.59502 14.9021 6.47158 15.0972 6.30649C15.2924 6.1414 15.4517 5.93814 15.5655 5.70922C15.6792 5.48029 15.7449 5.23053 15.7586 4.97527C15.7723 4.72002 15.7336 4.46466 15.645 4.22489C15.5563 3.98513 15.4196 3.76601 15.2432 3.58102C15.0668 3.39602 14.8545 3.24905 14.6192 3.14914C14.3839 3.04922 14.1306 2.99847 13.875 3Z" fill="#949495"/>
</g>
<defs>
<clipPath id="clip0_113_975">
<rect width="18" height="18" fill="white"/>
</clipPath>
</defs>
</svg>
