<svg width="18" height="18" viewBox="0 0 18 18" fill="none" xmlns="http://www.w3.org/2000/svg">
<g clip-path="url(#clip0_113_981)">
<path d="M9 15H15V16.5H9C4.85775 16.5 1.5 13.1423 1.5 9C1.5 4.85775 4.85775 1.5 9 1.5C13.1423 1.5 16.5 4.85775 16.5 9C16.5024 10.6232 15.9758 12.2029 15 13.5H12.969C14.0222 12.5712 14.7162 11.3024 14.9303 9.9145C15.1443 8.52665 14.8648 7.10769 14.1403 5.90472C13.4159 4.70174 12.2925 3.79097 10.9657 3.331C9.6389 2.87103 8.19281 2.89101 6.87923 3.38745C5.56565 3.88389 4.46781 4.82534 3.77688 6.04786C3.08595 7.27039 2.84571 8.69653 3.098 10.0779C3.35028 11.4593 4.0791 12.7085 5.15755 13.6079C6.236 14.5073 7.59574 14.9999 9 15ZM9 7.5C8.60218 7.5 8.22064 7.34196 7.93934 7.06066C7.65804 6.77936 7.5 6.39782 7.5 6C7.5 5.60218 7.65804 5.22064 7.93934 4.93934C8.22064 4.65804 8.60218 4.5 9 4.5C9.39782 4.5 9.77936 4.65804 10.0607 4.93934C10.342 5.22064 10.5 5.60218 10.5 6C10.5 6.39782 10.342 6.77936 10.0607 7.06066C9.77936 7.34196 9.39782 7.5 9 7.5ZM6 10.5C5.60218 10.5 5.22064 10.342 4.93934 10.0607C4.65804 9.77936 4.5 9.39782 4.5 9C4.5 8.60218 4.65804 8.22064 4.93934 7.93934C5.22064 7.65804 5.60218 7.5 6 7.5C6.39782 7.5 6.77936 7.65804 7.06066 7.93934C7.34196 8.22064 7.5 8.60218 7.5 9C7.5 9.39782 7.34196 9.77936 7.06066 10.0607C6.77936 10.342 6.39782 10.5 6 10.5ZM12 10.5C11.6022 10.5 11.2206 10.342 10.9393 10.0607C10.658 9.77936 10.5 9.39782 10.5 9C10.5 8.60218 10.658 8.22064 10.9393 7.93934C11.2206 7.65804 11.6022 7.5 12 7.5C12.3978 7.5 12.7794 7.65804 13.0607 7.93934C13.342 8.22064 13.5 8.60218 13.5 9C13.5 9.39782 13.342 9.77936 13.0607 10.0607C12.7794 10.342 12.3978 10.5 12 10.5ZM9 13.5C8.60218 13.5 8.22064 13.342 7.93934 13.0607C7.65804 12.7794 7.5 12.3978 7.5 12C7.5 11.6022 7.65804 11.2206 7.93934 10.9393C8.22064 10.658 8.60218 10.5 9 10.5C9.39782 10.5 9.77936 10.658 10.0607 10.9393C10.342 11.2206 10.5 11.6022 10.5 12C10.5 12.3978 10.342 12.7794 10.0607 13.0607C9.77936 13.342 9.39782 13.5 9 13.5Z" fill="#949495"/>
</g>
<defs>
<clipPath id="clip0_113_981">
<rect width="18" height="18" fill="white"/>
</clipPath>
</defs>
</svg>
