<svg width="18" height="18" viewBox="0 0 18 18" fill="none" xmlns="http://www.w3.org/2000/svg">
<g clip-path="url(#clip0_113_969)">
<path d="M15 2.25V12.75C14.9999 13.4104 14.7818 14.0522 14.3797 14.5761C13.9776 15.0999 13.4139 15.4764 12.776 15.6472C12.1381 15.818 11.4616 15.7736 10.8516 15.5208C10.2415 15.268 9.73188 14.821 9.40176 14.249C9.07164 13.6771 8.93945 13.0122 9.0257 12.3575C9.11195 11.7028 9.41182 11.0948 9.8788 10.6279C10.3458 10.161 10.9538 9.86116 11.6085 9.77498C12.2632 9.6888 12.9281 9.82106 13.5 10.1512V3.75H6.75V12.75C6.74986 13.4104 6.53182 14.0522 6.12971 14.5761C5.72759 15.0999 5.16387 15.4764 4.52597 15.6472C3.88807 15.818 3.21164 15.7736 2.60156 15.5208C1.99149 15.268 1.48188 14.821 1.15176 14.249C0.821637 13.6771 0.689451 13.0122 0.775703 12.3575C0.861954 11.7028 1.16182 11.0948 1.6288 10.6279C2.09578 10.161 2.70378 9.86116 3.35851 9.77498C4.01324 9.6888 4.6781 9.82106 5.25 10.1512V2.25H15ZM3.75 14.25C4.14783 14.25 4.52936 14.092 4.81066 13.8107C5.09197 13.5294 5.25 13.1478 5.25 12.75C5.25 12.3522 5.09197 11.9706 4.81066 11.6893C4.52936 11.408 4.14783 11.25 3.75 11.25C3.35218 11.25 2.97065 11.408 2.68934 11.6893C2.40804 11.9706 2.25 12.3522 2.25 12.75C2.25 13.1478 2.40804 13.5294 2.68934 13.8107C2.97065 14.092 3.35218 14.25 3.75 14.25ZM12 14.25C12.3978 14.25 12.7794 14.092 13.0607 13.8107C13.342 13.5294 13.5 13.1478 13.5 12.75C13.5 12.3522 13.342 11.9706 13.0607 11.6893C12.7794 11.408 12.3978 11.25 12 11.25C11.6022 11.25 11.2206 11.408 10.9393 11.6893C10.658 11.9706 10.5 12.3522 10.5 12.75C10.5 13.1478 10.658 13.5294 10.9393 13.8107C11.2206 14.092 11.6022 14.25 12 14.25Z" fill="#949495"/>
</g>
<defs>
<clipPath id="clip0_113_969">
<rect width="18" height="18" fill="white"/>
</clipPath>
</defs>
</svg>
