<svg width="18" height="18" viewBox="0 0 18 18" fill="none" xmlns="http://www.w3.org/2000/svg">
<g clip-path="url(#clip0_113_987)">
<path d="M15.0621 11.4L15.9636 11.9407C16.0193 11.974 16.0653 12.0212 16.0973 12.0776C16.1292 12.134 16.146 12.1977 16.146 12.2625C16.146 12.3273 16.1292 12.391 16.0973 12.4474C16.0653 12.5038 16.0193 12.5509 15.9636 12.5842L9.38614 16.5307C9.26949 16.6008 9.13597 16.6378 8.99989 16.6378C8.86381 16.6378 8.73029 16.6008 8.61364 16.5307L2.03614 12.5842C1.98053 12.5509 1.93449 12.5038 1.90253 12.4474C1.87056 12.391 1.85376 12.3273 1.85376 12.2625C1.85376 12.1977 1.87056 12.134 1.90253 12.0776C1.93449 12.0212 1.98053 11.974 2.03614 11.9407L2.93764 11.4L8.99989 15.0375L15.0621 11.4ZM15.0621 7.87499L15.9636 8.41574C16.0193 8.44904 16.0653 8.49618 16.0973 8.55257C16.1292 8.60896 16.146 8.67267 16.146 8.73749C16.146 8.80231 16.1292 8.86602 16.0973 8.92241C16.0653 8.9788 16.0193 9.02595 15.9636 9.05924L8.99989 13.2375L2.03614 9.05924C1.98053 9.02595 1.93449 8.9788 1.90253 8.92241C1.87056 8.86602 1.85376 8.80231 1.85376 8.73749C1.85376 8.67267 1.87056 8.60896 1.90253 8.55257C1.93449 8.49618 1.98053 8.44904 2.03614 8.41574L2.93764 7.87499L8.99989 11.5125L15.0621 7.87499ZM9.38539 0.981741L15.9636 4.92824C16.0193 4.96154 16.0653 5.00868 16.0973 5.06507C16.1292 5.12146 16.146 5.18517 16.146 5.24999C16.146 5.31481 16.1292 5.37852 16.0973 5.43491C16.0653 5.4913 16.0193 5.53845 15.9636 5.57174L8.99989 9.74999L2.03614 5.57174C1.98053 5.53845 1.93449 5.4913 1.90253 5.43491C1.87056 5.37852 1.85376 5.31481 1.85376 5.24999C1.85376 5.18517 1.87056 5.12146 1.90253 5.06507C1.93449 5.00868 1.98053 4.96154 2.03614 4.92824L8.61364 0.981741C8.73029 0.911659 8.86381 0.874634 8.99989 0.874634C9.13597 0.874634 9.26949 0.911659 9.38614 0.981741H9.38539ZM8.99989 2.49899L4.41514 5.24999L8.99989 8.00099L13.5846 5.24999L8.99989 2.49899Z" fill="#949495"/>
</g>
<defs>
<clipPath id="clip0_113_987">
<rect width="18" height="18" fill="white"/>
</clipPath>
</defs>
</svg>
